<svg width="21" height="22" viewBox="0 0 21 22" fill="none" xmlns="http://www.w3.org/2000/svg">
<path d="M7.18202 2.23307C7.11949 2.19483 7.06914 2.13957 7.03689 2.07375C7.00463 2.00793 6.9918 1.93428 6.99989 1.86143C7.00799 1.78858 7.03667 1.71955 7.08259 1.66241C7.12851 1.60528 7.18975 1.56241 7.25916 1.53883C8.6645 1.05267 10.1606 0.886089 11.6385 1.05122C13.1163 1.21636 14.5387 1.70905 15.8021 2.49341C15.8491 2.52146 15.8896 2.5592 15.9209 2.60412C15.9522 2.64903 15.9736 2.70009 15.9836 2.7539C15.9936 2.80772 15.9921 2.86305 15.9791 2.91622C15.9661 2.96939 15.9419 3.01919 15.9082 3.0623C14.7871 4.48489 13.4185 5.69347 11.8681 6.6299C10.6134 4.86778 9.0204 3.37311 7.18202 2.23307ZM10.4893 7.35306C9.07757 5.43497 7.22575 3.88406 5.08967 2.83088C5.0266 2.80231 4.95738 2.78999 4.88832 2.79504C4.81927 2.8001 4.75258 2.82236 4.69434 2.85981C2.96602 4.10463 1.67386 5.86237 1.00139 7.88338C0.985482 7.93467 0.980459 7.98873 0.986647 8.04208C0.992835 8.09543 1.0101 8.1469 1.03733 8.19319C1.06456 8.23948 1.10116 8.27958 1.14478 8.31091C1.18841 8.34224 1.23809 8.36411 1.29066 8.37513C2.29825 8.59257 3.32608 8.70246 4.35687 8.70296C6.47499 8.70563 8.56806 8.24489 10.4893 7.35306ZM20.4978 9.92752C20.2512 7.69097 19.2596 5.60237 17.6823 3.99759C17.6434 3.95966 17.597 3.93017 17.5462 3.91096C17.4953 3.89175 17.4411 3.88324 17.3868 3.88595C17.3325 3.88867 17.2793 3.90255 17.2306 3.92674C17.1819 3.95092 17.1388 3.98489 17.1038 4.02651C15.8845 5.58255 14.3912 6.9027 12.6973 7.92195C13.2257 8.83878 13.6648 9.80421 14.0087 10.805C15.3886 10.4318 16.8121 10.2437 18.2416 10.2457C18.8537 10.2471 19.4654 10.2825 20.0736 10.3518C20.1308 10.3578 20.1886 10.351 20.2429 10.3319C20.2971 10.3127 20.3464 10.2816 20.387 10.241C20.4277 10.2003 20.4588 10.151 20.4779 10.0968C20.4971 10.0426 20.5039 9.98472 20.4978 9.92752ZM14.4329 12.2898C14.7162 13.5069 14.8586 14.7525 14.8572 16.0021C14.8565 17.1958 14.7239 18.3858 14.4619 19.5504C14.4447 19.622 14.4484 19.697 14.4725 19.7666C14.4966 19.8362 14.5401 19.8975 14.5979 19.9431C14.6557 19.9887 14.7254 20.0169 14.7987 20.0242C14.8719 20.0315 14.9458 20.0176 15.0115 19.9843C16.4746 19.2525 17.7366 18.1742 18.6878 16.8432C19.639 15.5122 20.2504 13.969 20.4689 12.3477C20.4757 12.297 20.4722 12.2454 20.4589 12.1961C20.4455 12.1467 20.4224 12.1005 20.391 12.0601C20.3596 12.0197 20.3205 11.986 20.2759 11.9609C20.2314 11.9357 20.1823 11.9198 20.1314 11.9138C19.5052 11.8282 18.8737 11.7863 18.2416 11.7885C16.9555 11.7869 15.6748 11.9555 14.4329 12.2898ZM12.5334 11.2871C12.2279 10.3734 11.8271 9.49431 11.3378 8.66439C9.1587 9.70794 6.77293 10.2484 4.35687 10.2457C3.22576 10.2451 2.09785 10.1255 0.991751 9.88895C0.938172 9.87783 0.882842 9.87824 0.829435 9.89016C0.776028 9.90207 0.725767 9.92521 0.681992 9.95804C0.638216 9.99088 0.601928 10.0326 0.575537 10.0806C0.549147 10.1285 0.533258 10.1815 0.528927 10.2361C0.509643 10.4932 0.500001 10.7535 0.500001 11.0171C0.499511 12.39 0.781777 13.7484 1.32921 15.0075C1.87664 16.2666 2.67751 17.3994 3.68191 18.3355C3.7233 18.3752 3.77324 18.405 3.8279 18.4224C3.88257 18.4399 3.9405 18.4446 3.99727 18.4363C4.05404 18.4279 4.10814 18.4066 4.15543 18.3741C4.20272 18.3416 4.24194 18.2987 4.27009 18.2487C6.15144 15.0549 9.06661 12.599 12.5334 11.2871ZM5.485 19.2322C5.45927 19.2764 5.4426 19.3253 5.43595 19.376C5.4293 19.4268 5.43281 19.4783 5.44627 19.5276C5.45973 19.577 5.48287 19.6232 5.51435 19.6635C5.54583 19.7038 5.58502 19.7375 5.62963 19.7625C7.12398 20.6064 8.81168 21.0483 10.5278 21.0449C11.1131 21.0475 11.6973 20.9959 12.2731 20.8907C12.3397 20.8796 12.402 20.8503 12.4531 20.8061C12.5041 20.7618 12.5419 20.7044 12.5623 20.64C13.0625 19.1449 13.3165 17.5786 13.3144 16.0021C13.3139 14.9156 13.1943 13.8324 12.9577 12.772C9.79925 14.004 7.16075 16.2851 5.485 19.2322Z" fill="#FAFAFA"/>
</svg>
