<svg width="21" height="20" viewBox="0 0 21 20" fill="none" xmlns="http://www.w3.org/2000/svg">
<path fill-rule="evenodd" clip-rule="evenodd" d="M5.31212 3.15325C5.31212 4.19084 4.52208 5.03053 3.28661 5.03053C2.09926 5.03053 1.30923 4.19084 1.33368 3.15325C1.30923 2.06524 2.09925 1.25 3.31027 1.25C4.52206 1.25 5.28843 2.06524 5.31212 3.15325ZM1.43301 18.5993V6.51355H5.1891V18.5986H1.43301V18.5993Z" fill="#FAFAFA"/>
<path fill-rule="evenodd" clip-rule="evenodd" d="M8.19979 10.3704C8.19979 8.86295 8.15013 7.57781 8.10046 6.51501H11.363L11.5364 8.17072H11.6105C12.1049 7.40437 13.3404 6.24377 15.3422 6.24377C17.8131 6.24377 19.6667 7.87503 19.6667 11.4325V18.6008H15.9106V11.9031C15.9106 10.3452 15.3674 9.28317 14.0081 9.28317C12.9698 9.28317 12.3524 9.99986 12.1056 10.6913C12.0063 10.9389 11.9574 11.2842 11.9574 11.6311V18.6008H8.20131V10.3704H8.19979Z" fill="#FAFAFA"/>
</svg>
