<svg width="79" height="16" viewBox="0 0 79 16" fill="none" xmlns="http://www.w3.org/2000/svg">
<path d="M0 1C0 0.447715 0.447715 0 1 0H5V16H1C0.447715 16 0 15.5523 0 15V1Z" fill="#F5FEFF"/>
<path d="M5 16L5 12L13 12C13.5523 12 14 12.4477 14 13V16H5Z" fill="#F5FEFF"/>
<path d="M6.36846 9.61821L6.50617 1.89924L14.0882 9.53905L6.36846 9.61821Z" fill="#00D1FF"/>
<path d="M47.245 5.11923L49.9409 10.3346L44.5433 10.3326L47.245 5.11923Z" fill="#00D1FF"/>
<path d="M19.8 1.896H21.906V12.984H28.368V15H19.8V1.896ZM31.1379 1.896H39.8319V3.912H33.2439V7.404H39.1119V9.438H33.2439V12.984H40.0839V15H31.1379V1.896ZM41.6175 15L47.4135 1.356H47.5395L53.3355 15H50.9235L46.8375 4.65L48.3495 3.624L43.6875 15H41.6175ZM45.2535 10.14H49.7355L50.4555 11.922H44.6235L45.2535 10.14ZM55.5715 15V1.896H59.2975C60.6055 1.896 61.7155 2.094 62.6275 2.49C63.5395 2.874 64.2775 3.396 64.8415 4.056C65.4055 4.704 65.8135 5.43 66.0655 6.234C66.3295 7.026 66.4615 7.824 66.4615 8.628C66.4615 9.612 66.2875 10.494 65.9395 11.274C65.5915 12.054 65.1175 12.726 64.5175 13.29C63.9175 13.842 63.2215 14.268 62.4295 14.568C61.6495 14.856 60.8155 15 59.9275 15H55.5715ZM57.6775 12.984H59.5495C60.2455 12.984 60.8815 12.888 61.4575 12.696C62.0335 12.492 62.5315 12.204 62.9515 11.832C63.3835 11.448 63.7135 10.974 63.9415 10.41C64.1815 9.846 64.3015 9.204 64.3015 8.484C64.3015 7.668 64.1635 6.972 63.8875 6.396C63.6235 5.808 63.2695 5.334 62.8255 4.974C62.3935 4.602 61.9195 4.332 61.4035 4.164C60.8875 3.996 60.3775 3.912 59.8735 3.912H57.6775V12.984ZM76.1408 4.56C75.6728 4.32 75.1748 4.116 74.6468 3.948C74.1188 3.768 73.6148 3.678 73.1348 3.678C72.4868 3.678 71.9708 3.822 71.5868 4.11C71.2148 4.398 71.0288 4.794 71.0288 5.298C71.0288 5.658 71.1608 5.976 71.4248 6.252C71.6888 6.516 72.0248 6.75 72.4328 6.954C72.8408 7.146 73.2728 7.332 73.7288 7.512C74.1248 7.656 74.5148 7.83 74.8988 8.034C75.2948 8.226 75.6488 8.466 75.9608 8.754C76.2728 9.042 76.5188 9.402 76.6988 9.834C76.8908 10.254 76.9868 10.776 76.9868 11.4C76.9868 12.084 76.8128 12.714 76.4648 13.29C76.1168 13.854 75.6188 14.304 74.9708 14.64C74.3228 14.976 73.5308 15.144 72.5948 15.144C72.0548 15.144 71.5208 15.084 70.9928 14.964C70.4768 14.844 69.9848 14.682 69.5168 14.478C69.0488 14.262 68.6168 14.022 68.2208 13.758L69.1568 12.12C69.4448 12.336 69.7748 12.534 70.1468 12.714C70.5188 12.894 70.9028 13.038 71.2988 13.146C71.6948 13.242 72.0668 13.29 72.4148 13.29C72.7868 13.29 73.1528 13.23 73.5128 13.11C73.8848 12.99 74.1908 12.792 74.4308 12.516C74.6828 12.24 74.8088 11.874 74.8088 11.418C74.8088 11.046 74.7008 10.728 74.4848 10.464C74.2688 10.2 73.9868 9.972 73.6388 9.78C73.3028 9.576 72.9308 9.396 72.5228 9.24C72.1148 9.084 71.6948 8.91 71.2628 8.718C70.8428 8.526 70.4528 8.292 70.0928 8.016C69.7328 7.728 69.4388 7.38 69.2108 6.972C68.9828 6.564 68.8688 6.06 68.8688 5.46C68.8688 4.74 69.0368 4.116 69.3728 3.588C69.7088 3.06 70.1708 2.64 70.7588 2.328C71.3588 2.016 72.0488 1.848 72.8288 1.824C73.7528 1.824 74.5388 1.938 75.1868 2.166C75.8468 2.382 76.4288 2.646 76.9328 2.958L76.1408 4.56Z" fill="white"/>
</svg>
