<svg width="583" height="495" viewBox="0 0 583 495" fill="none" xmlns="http://www.w3.org/2000/svg">
<path d="M537.245 410.925C537.122 410.925 539.054 402.501 539.232 401.98C541.341 395.994 548.958 385.651 556.067 385.843C557.249 385.906 558.405 386.218 559.458 386.758C560.511 387.298 561.439 388.055 562.18 388.978C562.921 389.901 563.458 390.97 563.758 392.115C564.057 393.261 564.111 394.456 563.917 395.624C563.273 400.596 558.684 404.747 554.56 407.103C549.711 409.87 537.259 410.925 537.245 410.925Z" fill="#263238"/>
<path d="M538.04 376.651C537.917 376.651 541.095 368.596 541.355 368.117C544.355 362.501 553.437 353.432 560.437 354.706C561.595 354.948 562.689 355.432 563.648 356.125C564.606 356.817 565.408 357.705 566.001 358.728C566.595 359.751 566.966 360.888 567.09 362.065C567.215 363.241 567.09 364.43 566.725 365.555C565.355 370.391 560.163 373.775 555.766 375.487C550.519 377.501 538.054 376.651 538.04 376.651Z" fill="#263238"/>
<path d="M546.971 338.556C546.834 338.556 550.013 330.501 550.273 330.021C553.273 324.419 562.369 315.35 569.369 316.61C570.527 316.854 571.621 317.339 572.579 318.033C573.537 318.728 574.339 319.616 574.931 320.641C575.523 321.666 575.892 322.804 576.015 323.981C576.137 325.159 576.01 326.348 575.643 327.473C574.273 332.295 569.081 335.693 564.684 337.405C559.451 339.405 546.971 338.556 546.971 338.556Z" fill="#263238"/>
<path d="M553.643 302.227C553.506 302.227 556.684 294.172 556.944 293.679C559.944 288.076 569.04 279.008 576.04 280.282C577.198 280.524 578.292 281.007 579.25 281.7C580.209 282.393 581.011 283.28 581.604 284.304C582.197 285.327 582.568 286.464 582.693 287.64C582.818 288.817 582.693 290.006 582.328 291.131C580.958 295.967 575.752 299.35 571.369 301.062C566.122 303.062 553.643 302.227 553.643 302.227Z" fill="#263238"/>
<path d="M550.807 270.652C550.67 270.652 551.615 262.076 551.739 261.542C553.108 255.337 559.519 244.186 566.615 243.57C567.795 243.499 568.977 243.678 570.084 244.094C571.19 244.51 572.197 245.155 573.038 245.985C573.879 246.816 574.536 247.815 574.966 248.916C575.396 250.017 575.589 251.197 575.533 252.378C575.533 257.405 571.423 262.049 567.56 264.857C563.067 268.117 550.807 270.652 550.807 270.652Z" fill="#263238"/>
<path d="M533.793 409.994C533.917 409.994 532.547 401.473 532.424 400.953C530.711 394.829 523.793 384.007 516.684 383.733C515.5 383.72 514.327 383.956 513.241 384.427C512.155 384.897 511.18 385.591 510.38 386.464C509.58 387.336 508.972 388.367 508.598 389.49C508.223 390.613 508.089 391.802 508.204 392.98C508.52 397.994 512.835 402.432 516.793 405.048C521.424 408.131 533.78 409.994 533.793 409.994Z" fill="#263238"/>
<path d="M537.547 371.884C537.684 371.884 535.026 363.665 534.807 363.144C532.177 357.35 523.698 347.706 516.629 348.514C515.458 348.682 514.335 349.094 513.333 349.723C512.332 350.353 511.474 351.187 510.817 352.171C510.159 353.154 509.716 354.265 509.516 355.431C509.316 356.597 509.364 357.793 509.657 358.939C510.725 363.843 515.67 367.583 519.972 369.569C525.04 371.912 537.533 371.884 537.547 371.884Z" fill="#263238"/>
<path d="M546.04 335.966C546.163 335.966 543.519 327.747 543.3 327.24C540.684 321.446 532.204 311.802 525.136 312.61C523.965 312.776 522.842 313.186 521.84 313.815C520.838 314.443 519.98 315.276 519.321 316.258C518.662 317.24 518.217 318.349 518.015 319.515C517.813 320.68 517.859 321.875 518.15 323.021C519.232 327.939 524.163 331.665 528.478 333.665C533.533 335.994 546.026 335.966 546.04 335.966Z" fill="#263238"/>
<path d="M552.245 302.542C552.382 302.542 549.725 294.323 549.506 293.802C546.876 288.021 538.41 278.378 531.328 279.186C530.157 279.351 529.034 279.762 528.033 280.39C527.031 281.019 526.174 281.851 525.516 282.834C524.858 283.816 524.414 284.926 524.214 286.091C524.014 287.257 524.062 288.451 524.355 289.597C525.424 294.515 530.369 298.241 534.684 300.227C539.739 302.569 552.245 302.542 552.245 302.542Z" fill="#263238"/>
<path d="M550.547 271.679C550.684 271.679 547.15 263.775 546.862 263.295C543.615 257.816 534.136 249.172 527.191 250.761C526.045 251.055 524.973 251.587 524.047 252.322C523.12 253.058 522.359 253.981 521.814 255.031C521.268 256.08 520.95 257.233 520.881 258.414C520.811 259.596 520.991 260.778 521.41 261.885C523.013 266.638 528.328 269.816 532.834 271.309C538.122 273.076 550.547 271.679 550.547 271.679Z" fill="#263238"/>
<path d="M543.067 244.364C543.177 244.364 543.684 235.775 543.656 235.227C543.287 228.871 538.862 216.816 531.971 215.022C530.819 214.756 529.624 214.735 528.463 214.961C527.302 215.188 526.202 215.656 525.234 216.336C524.266 217.016 523.453 217.891 522.846 218.906C522.239 219.921 521.852 221.053 521.711 222.227C520.944 227.2 524.204 232.46 527.506 235.926C531.382 239.871 543.054 244.35 543.067 244.364Z" fill="#263238"/>
<path d="M536.122 456.952C536.122 456.952 535.67 453.322 535.122 447.021C534.574 440.72 533.944 431.706 533.656 420.87C533.506 415.391 533.451 409.583 533.561 403.364C533.561 400.24 533.725 397.117 533.848 393.775C533.958 392.158 534.081 390.528 534.191 388.87C534.3 387.213 534.574 385.514 534.752 383.816C535.691 376.9 537.003 370.041 538.684 363.268C540.369 356.35 542.287 349.405 544.163 342.473C546.04 335.542 547.889 328.61 549.341 321.72C550.818 314.991 551.812 308.166 552.314 301.295C552.666 294.864 552.446 288.414 551.656 282.021C551.008 276.228 550.015 270.478 548.684 264.802C547.478 259.556 546.067 254.816 544.78 250.638C543.492 246.46 542.163 242.871 541.067 239.926C538.834 234.035 537.314 230.775 537.314 230.775C537.314 230.775 538.903 234.008 541.259 239.843C542.437 242.761 543.793 246.337 545.218 250.487C546.643 254.638 548.122 259.364 549.437 264.611C550.916 270.246 552.064 275.964 552.876 281.734C553.818 288.191 554.185 294.719 553.971 301.241C553.605 308.205 552.749 315.136 551.41 321.98C550.04 328.967 548.396 335.98 546.656 342.966C544.917 349.953 543.095 356.953 541.574 363.802C540.064 370.502 538.921 377.279 538.15 384.103C538.013 385.761 537.766 387.336 537.711 389.007C537.656 390.679 537.547 392.309 537.465 393.925C537.465 397.048 537.369 400.281 537.396 403.336C537.396 409.487 537.602 415.295 537.876 420.651C538.382 431.377 539.245 440.295 539.889 446.514C540.533 452.733 541.081 456.24 541.081 456.24C541.129 456.565 541.112 456.896 541.032 457.214C540.952 457.532 540.809 457.831 540.614 458.095C540.418 458.358 540.172 458.58 539.89 458.749C539.608 458.917 539.296 459.028 538.971 459.076C538.647 459.123 538.316 459.107 537.998 459.026C537.679 458.946 537.38 458.804 537.117 458.608C536.853 458.412 536.631 458.166 536.463 457.885C536.295 457.603 536.184 457.291 536.136 456.966V456.952H536.122Z" fill="#263238"/>
<path d="M520.889 442.802H555.04V449.87H552.067L545.903 488.445H530.04L523.862 449.87H520.889V442.802Z" fill="#263238" stroke="#263238" stroke-linecap="round" stroke-linejoin="round"/>
<path d="M295.863 468.596C295.863 468.596 294.685 475.541 295.548 477.103C296.411 478.665 297.794 480.719 297.794 480.719H308.671L309.26 477.363C310.76 479.028 312.601 480.35 314.657 481.24C317.548 482.267 320.342 481.24 323.726 481.5C326.589 481.719 333.315 481.5 333.315 481.5L333.123 477.87L313.493 469.076L306.465 463.596C306.465 463.596 300.301 469.158 295.863 468.596Z" fill="#263238" stroke="#263238" stroke-linecap="round" stroke-linejoin="round"/>
<path d="M214.849 468.596C214.849 468.596 216.712 474.254 216.027 475.802C215.342 477.35 214.219 480.719 214.219 480.719H203.356L202.397 477.363C201.075 479.036 199.369 480.365 197.425 481.24C194.685 482.267 191.726 481.24 188.384 481.5C185.548 481.719 178.795 481.5 178.795 481.5L178.603 477.87L197.274 469.076L204.685 464.966C204.685 464.966 210.466 469.158 214.849 468.596Z" fill="#263238" stroke="#263238" stroke-linecap="round" stroke-linejoin="round"/>
<path d="M301.726 201.529C301.726 201.529 306.219 259.693 307.78 287.501C309.342 315.309 310.068 327.925 310.246 347.501C310.424 367.076 311.287 405.761 311.287 420.295C311.302 435.132 310.337 449.955 308.397 464.665L295.26 471.665C295.26 471.665 291.013 434.35 289.301 420.98C287.753 408.884 282.096 359.665 279.534 344.446C276.972 329.227 265.301 276.309 265.301 276.309C265.301 276.309 249.726 331.829 245.698 354.008C241.671 376.186 226.52 426.199 223.274 438.363C220.027 450.528 214.849 468.569 214.849 468.569C213.023 469.104 211.106 469.254 209.219 469.007C208.372 468.94 207.555 468.667 206.838 468.211C206.122 467.755 205.528 467.13 205.109 466.391C205.109 466.391 208.931 429.98 210.507 412.281C212.466 390.364 213.082 361.268 215.466 349.09C217.849 336.912 217.767 313.583 220.534 297.925C222.109 289.035 230.123 203.981 230.123 203.981C230.123 203.981 274.561 221.967 301.726 201.529Z" fill="#263238" stroke="#263238" stroke-linecap="round" stroke-linejoin="round"/>
<path d="M308.397 464.665L298.164 472.966" stroke="white" stroke-width="0.5" stroke-linecap="round" stroke-linejoin="round"/>
<path d="M204.699 464.939L212.822 471.172" stroke="white" stroke-width="0.5" stroke-linecap="round" stroke-linejoin="round"/>
<path d="M272.013 221.104L271.191 255.022L276.945 249.282" stroke="white" stroke-width="0.5" stroke-linecap="round" stroke-linejoin="round"/>
<path d="M268.424 275.323L284.767 254.994" stroke="white" stroke-width="0.5" stroke-linecap="round" stroke-linejoin="round"/>
<path d="M289.301 256.474L275.671 269.843" stroke="white" stroke-width="0.5" stroke-linecap="round" stroke-linejoin="round"/>
<path d="M258.698 257.967C254.482 248.632 247.276 240.969 238.219 236.186" stroke="white" stroke-width="0.5" stroke-linecap="round" stroke-linejoin="round"/>
<path d="M279.479 211.926L278.698 215.898L272.342 217.378L273.068 212.433" stroke="white" stroke-width="0.5" stroke-linecap="round" stroke-linejoin="round"/>
<path d="M272.342 217.378C272.342 217.378 260.438 216.885 254.397 214.898L255.671 210.939" stroke="white" stroke-width="0.5" stroke-linecap="round" stroke-linejoin="round"/>
<path d="M250.164 209.953L248.959 214.898C248.959 214.898 239.52 214.405 238 212.926" stroke="white" stroke-width="0.5" stroke-linecap="round" stroke-linejoin="round"/>
<path d="M278.698 215.857C281.938 215.762 285.112 214.918 287.972 213.392L292.287 210.912L290.616 207.446" stroke="white" stroke-width="0.5" stroke-linecap="round" stroke-linejoin="round"/>
<path d="M307.589 87.707C307.589 87.707 316.191 95.1727 318.767 100.104C321.342 105.036 355.15 173.967 355.013 178.679C354.876 183.392 349.876 192.378 341.054 192.378C332.232 192.378 298.794 138.652 298.794 138.652L307.589 87.707Z" fill="white"/>
<mask id="mask0_298_3521" style="mask-type:luminance" maskUnits="userSpaceOnUse" x="298" y="87" width="58" height="106">
<path d="M307.589 87.707C307.589 87.707 316.191 95.1727 318.767 100.104C321.342 105.036 355.15 173.967 355.013 178.679C354.876 183.392 349.876 192.378 341.054 192.378C332.232 192.378 298.794 138.652 298.794 138.652L307.589 87.707Z" fill="white"/>
</mask>
<g mask="url(#mask0_298_3521)">
<g style="mix-blend-mode:multiply" opacity="0.5">
<path d="M308.643 95.9809L309.219 96.296C310.232 96.885 312.506 98.2138 315 99.8713C317.817 102.032 320.385 104.499 322.657 107.227C322.657 107.227 319.561 99.0083 315.027 95.0768C312.505 92.9103 310.16 90.5467 308.013 88.0083L308.643 95.9809Z" fill="#479FE2"/>
</g>
</g>
<path d="M307.589 87.707C307.589 87.707 316.191 95.1727 318.767 100.104C321.342 105.036 355.15 173.967 355.013 178.679C354.876 183.392 349.876 192.378 341.054 192.378C332.232 192.378 298.794 138.652 298.794 138.652L307.589 87.707Z" stroke="#263238" stroke-linecap="round" stroke-linejoin="round"/>
<path opacity="0.5" d="M329.137 159.789C328 158.419 319.548 144.816 318.684 139.734C317.821 134.652 320.054 128.145 320.054 124.748C320.054 121.351 314.685 130.679 314.397 129.556C314.109 128.433 310.726 116.269 310.726 116.269L300.356 129.679L298.808 138.679C298.808 138.679 311.904 159.707 323.876 175.446C332.397 172.707 345.26 168.529 348.027 166.857C352.315 164.323 330.274 161.214 329.137 159.789Z" fill="#479FE2"/>
<path d="M266.287 78.3919L307.643 87.707C307.643 87.707 310.52 108.899 310.191 120.351C309.863 131.803 301.342 202.624 301.342 202.624C301.342 202.624 279.424 224.98 230.219 203.994C230.219 203.994 228.507 200.693 227.863 176.008C227.246 151.666 208.945 106.46 210.411 101.31C213.425 90.748 249.616 80.5974 254.37 80.3097C258.379 79.9285 262.36 79.2879 266.287 78.3919Z" fill="white" stroke="#263238" stroke-linecap="round" stroke-linejoin="round"/>
<g style="mix-blend-mode:multiply" opacity="0.5">
<path d="M270.027 202.501L232.15 187.652L238.698 115.707L281.78 135.871L307.602 124.255L289.137 199.337L270.027 202.501Z" fill="#479FE2"/>
</g>
<g style="mix-blend-mode:multiply" opacity="0.5">
<path d="M281.233 90.8165C283 90.8165 299.342 94.0905 308.63 95.9809C308.095 91.1316 307.63 87.7618 307.63 87.7618L266.274 78.4467C262.347 79.3473 258.366 79.9925 254.356 80.3782C249.603 80.6659 213.411 90.8165 210.397 101.378C209.918 103.09 211.589 109.173 214.068 117.433C217.685 108.104 220.918 100.419 222.027 99.3371C224.52 96.8439 249.424 90.3782 249.424 90.3782L281.233 90.8165Z" fill="#479FE2"/>
</g>
<path d="M277.52 99.5425L271.835 112.255L284.301 200.337L275.164 212.665L266.493 202.611L268.918 113.378L257.438 99.9809L264.781 86.0905L277.52 99.5425Z" fill="#263238"/>
<path d="M321.561 128.008L288.424 146.392L245.808 124.09L239.055 187.035L281.26 207.378L313.219 188.145L321.561 128.008Z" fill="#479FE2" stroke="#263238" stroke-linecap="round" stroke-linejoin="round"/>
<path d="M287.164 160.529L288.424 150.419" stroke="#263238" stroke-width="0.5" stroke-linecap="round" stroke-linejoin="round"/>
<path d="M281.26 207.378L286.465 166.077" stroke="#263238" stroke-width="0.5" stroke-linecap="round" stroke-linejoin="round"/>
<path d="M270.137 74.8577C270.137 74.8577 277.602 74.8577 280.849 79.7892C284.096 84.7207 290.328 104.214 290.328 104.214L267.863 97.8987L254.246 111.967C254.246 111.967 241.767 93.4741 246.849 81.7344C251.931 69.9947 270.137 74.8577 270.137 74.8577Z" fill="white" stroke="#263238" stroke-linecap="round" stroke-linejoin="round"/>
<g style="mix-blend-mode:multiply" opacity="0.5">
<path d="M283.123 84.3508C282.48 82.7756 281.72 81.2508 280.849 79.7892C277.602 74.7892 270.137 74.8577 270.137 74.8577C270.137 74.8577 251.959 69.9947 246.849 81.707C245.205 85.5015 245.479 90.0083 246.424 94.3645C247.315 92.0357 249.329 87.3645 251.904 84.7755C255.383 81.296 255.794 84.3234 255.794 84.3234L275.274 82.7755C277.854 83.4677 280.476 83.9938 283.123 84.3508Z" fill="#479FE2"/>
</g>
<path d="M273.342 63.5153C273.342 63.5153 274.602 89.433 271.328 94.5426C268.055 99.6521 264.328 97.6932 261.602 94.5426C258.876 91.3919 255.794 84.3508 255.794 84.3508L252.466 65.1728C252.466 65.1728 271.863 68.7481 273.342 63.5153Z" fill="white" stroke="#263238" stroke-linecap="round" stroke-linejoin="round"/>
<g style="mix-blend-mode:multiply" opacity="0.5">
<path d="M266.315 84.3508C269.136 83.5425 271.641 81.8882 273.493 79.6111C273.493 78.1453 273.493 76.6933 273.493 75.2823C270.301 71.6248 262.972 64.7207 254.808 66.9399C254.109 67.1317 253.438 67.3509 252.822 67.57L255.781 84.3508C255.781 84.3508 258.876 91.4467 261.589 94.5426L258.849 82.3097C259.805 83.2753 260.998 83.9722 262.308 84.3305C263.619 84.6888 265.001 84.6958 266.315 84.3508Z" fill="#479FE2"/>
</g>
<path d="M284.767 39.94C284.767 39.94 288.52 39.666 288.602 45.9263C288.685 52.1865 285 57.4468 282.465 55.2687C279.931 53.0906 284.068 37.0907 284.767 39.94Z" fill="white" stroke="#263238" stroke-linecap="round" stroke-linejoin="round"/>
<path d="M259 7.52914C241.918 11.5565 237.342 22.5976 237.479 32.5976C237.479 36.4195 239.246 43.0359 241.589 50.0085L241.287 49.3783C241.287 49.3783 236.151 40.4195 235.397 45.803C234.644 51.1865 239.726 56.7619 241.411 58.5564C241.878 58.9871 242.481 59.2418 243.116 59.2768C243.751 59.3117 244.378 59.1249 244.89 58.7482C248.287 66.9673 252.082 74.3235 254.561 76.3235C259.931 80.6659 267.479 82.8988 273.479 77.6933C279.479 72.4878 285.411 42.803 285.411 42.803C286.835 12.7757 276.082 3.52916 259 7.52914Z" fill="white"/>
<mask id="mask1_298_3521" style="mask-type:luminance" maskUnits="userSpaceOnUse" x="235" y="6" width="51" height="75">
<path d="M259 7.52914C241.918 11.5565 237.342 22.5976 237.479 32.5976C237.479 36.4195 239.246 43.0359 241.589 50.0085L241.287 49.3783C241.287 49.3783 236.151 40.4195 235.397 45.803C234.644 51.1865 239.726 56.7619 241.411 58.5564C241.878 58.9871 242.481 59.2418 243.116 59.2768C243.751 59.3117 244.378 59.1249 244.89 58.7482C248.287 66.9673 252.082 74.3235 254.561 76.3235C259.931 80.6659 267.479 82.8988 273.479 77.6933C279.479 72.4878 285.411 42.803 285.411 42.803C286.835 12.7757 276.082 3.52916 259 7.52914Z" fill="white"/>
</mask>
<g mask="url(#mask1_298_3521)">
<g style="mix-blend-mode:multiply" opacity="0.5">
<path d="M249.904 39.1455C249.904 39.1455 255.863 34.1729 261.835 34.1729C267.808 34.1729 280.246 39.6523 281.726 44.1181C282.63 46.8578 281.561 55.6934 280.561 62.4057C283.438 52.9537 285.465 42.8441 285.465 42.8441C286.835 12.8305 276.068 3.55654 259 7.58393C241.931 11.6113 237.342 22.6524 237.479 32.6523C237.479 36.4743 239.246 43.0907 241.589 50.0633L241.287 49.4331C241.287 49.4331 236.151 40.4742 235.397 45.8578C234.644 51.2413 239.726 56.8167 241.411 58.6112C241.878 59.0419 242.481 59.2965 243.116 59.3315C243.751 59.3665 244.378 59.1797 244.89 58.8029C248.287 67.0221 252.082 74.3782 254.561 76.3782C254.561 76.3782 248.849 63.5153 246.863 58.0495C244.877 52.5838 245.424 43.077 249.904 39.1455Z" fill="#479FE2"/>
</g>
</g>
<path d="M259 7.52914C241.918 11.5565 237.342 22.5976 237.479 32.5976C237.479 36.4195 239.246 43.0359 241.589 50.0085L241.287 49.3783C241.287 49.3783 236.151 40.4195 235.397 45.803C234.644 51.1865 239.726 56.7619 241.411 58.5564C241.878 58.9871 242.481 59.2418 243.116 59.2768C243.751 59.3117 244.378 59.1249 244.89 58.7482C248.287 66.9673 252.082 74.3235 254.561 76.3235C259.931 80.6659 267.479 82.8988 273.479 77.6933C279.479 72.4878 285.411 42.803 285.411 42.803C286.835 12.7757 276.082 3.52916 259 7.52914Z" stroke="#263238" stroke-linecap="round" stroke-linejoin="round"/>
<path d="M279.082 51.5427C278.227 52.8291 276.9 53.7279 275.388 54.0457C273.877 54.3634 272.3 54.0745 271 53.2413" stroke="#263238" stroke-linecap="round" stroke-linejoin="round"/>
<path d="M260.849 53.3509C259.994 54.6373 258.667 55.5362 257.156 55.8539C255.644 56.1716 254.068 55.8828 252.767 55.0495" stroke="#263238" stroke-linecap="round" stroke-linejoin="round"/>
<path d="M261.726 49.2139C259.518 48.1059 257.128 47.4052 254.671 47.1454C251.411 47.0085 248.205 49.666 248.205 49.666" stroke="#263238" stroke-linecap="round" stroke-linejoin="round"/>
<path d="M269.589 63.0495C269.473 63.8819 269.035 64.6355 268.368 65.1479C267.702 65.6603 266.861 65.8906 266.027 65.7892C265.156 65.8157 264.294 65.6007 263.537 65.1679C262.781 64.7352 262.158 64.1016 261.739 63.3372" stroke="#263238" stroke-linecap="round" stroke-linejoin="round"/>
<path d="M272.465 69.6659C272.465 69.6659 264.465 72.0495 259.329 69.981C260 71.1875 260.918 72.2392 262.022 73.0676C263.127 73.896 264.393 74.4826 265.739 74.7892C268.781 75.5974 272.465 69.6659 272.465 69.6659Z" fill="#263238"/>
<path d="M280.082 45.6112C280.082 45.6112 277.082 45.3509 274.246 45.3783C271.644 45.3783 269.054 48.7619 269.054 48.7619L268.137 52.8715" stroke="#263238" stroke-linecap="round" stroke-linejoin="round"/>
<path d="M255.397 30.8304C261.609 36.0328 268.398 40.505 275.63 44.1592C287.411 50.0496 296.452 38.6797 290.931 33.0907C285.411 27.5017 298.123 39.2277 300.123 32.214C302.123 25.2003 283.822 1.1319 265.438 0.789439C247.055 0.446974 242.603 11.9675 242.603 11.9675C242.603 11.9675 240.438 6.036 238.808 9.30996C237.86 11.0918 237.317 13.0611 237.219 15.0771C237.219 15.0771 233.493 17.8168 231.849 19.4469C230.205 21.0771 232.315 22.8031 232.315 22.8031C232.315 22.8031 229.027 31.0222 230.781 37.3647L240.219 51.0633C241.358 51.0264 242.472 50.7279 243.477 50.1911C244.482 49.6542 245.35 48.8934 246.013 47.9674C248.479 44.7345 246.671 34.6523 246.671 34.6523C246.671 34.6523 246.822 45.5016 249.712 43.1181C252.603 40.7345 248.342 30.1318 248.342 30.1318L255.397 30.8304Z" fill="#263238"/>
<path d="M247.192 19.625C247.192 19.625 255.602 25.9537 261.685 31.7345C267.767 37.5153 277.041 39.7345 279.794 38.4606" stroke="white" stroke-width="0.5" stroke-miterlimit="10" stroke-linecap="round"/>
<path d="M273.178 27.5839C273.178 27.5839 261.123 24.8442 258.287 19.6113C255.452 14.3784 246.671 14.9949 246.671 14.9949C248.864 12.9722 251.541 11.547 254.443 10.8562C257.346 10.1653 260.377 10.232 263.246 11.0497" stroke="white" stroke-width="0.5" stroke-miterlimit="10" stroke-linecap="round"/>
<path d="M242.616 22.214C242.616 22.214 252.041 36.4195 246.096 40.7893" stroke="white" stroke-width="0.5" stroke-miterlimit="10" stroke-linecap="round"/>
<path d="M210.411 101.323C210.411 101.323 184.836 171.049 186.014 178.83C187.192 186.611 200.616 183.515 204.849 182.46C209.082 181.405 225.397 155.515 225.507 149.94C226.561 149.28 227.462 148.404 228.152 147.37C228.842 146.336 229.303 145.166 229.507 143.94C230.507 139.447 231.192 123.392 224.698 111.351" fill="white"/>
<mask id="mask2_298_3521" style="mask-type:luminance" maskUnits="userSpaceOnUse" x="185" y="101" width="46" height="83">
<path d="M210.411 101.323C210.411 101.323 184.836 171.049 186.014 178.83C187.192 186.611 200.616 183.515 204.849 182.46C209.082 181.405 225.397 155.515 225.507 149.94C226.561 149.28 227.462 148.404 228.152 147.37C228.842 146.336 229.303 145.166 229.507 143.94C230.507 139.447 231.192 123.392 224.698 111.351" fill="white"/>
</mask>
<g mask="url(#mask2_298_3521)">
<g style="mix-blend-mode:multiply" opacity="0.5">
<path d="M210.411 101.323C210.411 101.323 184.836 171.049 186.014 178.83C186.671 183.09 191 184.077 195.466 183.94C198.589 175.131 199.808 159.036 202.151 151.063C204.74 142.145 213.178 119.063 218.315 106.926L210.411 101.323Z" fill="#479FE2"/>
</g>
</g>
<path d="M210.411 101.323C210.411 101.323 184.836 171.049 186.014 178.83C187.192 186.611 200.616 183.515 204.849 182.46C209.082 181.405 225.397 155.515 225.507 149.94C226.561 149.28 227.462 148.404 228.152 147.37C228.842 146.336 229.303 145.166 229.507 143.94C230.507 139.447 231.192 123.392 224.698 111.351" stroke="#263238" stroke-linecap="round" stroke-linejoin="round"/>
<path d="M229.74 172.46C229.74 172.46 196.863 170.46 192.644 170.118C188.425 169.775 183.37 175.597 187.342 183.652C191.315 191.707 197.63 192.172 205.383 190.707C213.137 189.241 230.26 178.789 230.26 178.789L229.74 172.46Z" fill="white"/>
<mask id="mask3_298_3521" style="mask-type:luminance" maskUnits="userSpaceOnUse" x="185" y="170" width="46" height="22">
<path d="M229.74 172.46C229.74 172.46 196.863 170.46 192.644 170.118C188.425 169.775 183.37 175.597 187.342 183.652C191.315 191.707 197.63 192.172 205.383 190.707C213.137 189.241 230.26 178.789 230.26 178.789L229.74 172.46Z" fill="white"/>
</mask>
<g mask="url(#mask3_298_3521)">
<path opacity="0.5" d="M229.74 172.46C229.74 172.46 196.863 170.46 192.644 170.118C188.425 169.775 183.37 175.597 187.342 183.652C191.315 191.707 197.63 192.172 205.383 190.707C213.137 189.241 230.26 178.789 230.26 178.789L229.74 172.46Z" fill="#479FE2" stroke="#263238" stroke-linecap="round" stroke-linejoin="round"/>
</g>
<path d="M229.74 172.46C229.74 172.46 196.863 170.46 192.644 170.118C188.425 169.775 183.37 175.597 187.342 183.652C191.315 191.707 197.63 192.172 205.383 190.707C213.137 189.241 230.26 178.789 230.26 178.789L229.74 172.46Z" stroke="#263238" stroke-linecap="round" stroke-linejoin="round"/>
<path d="M234.986 164.446C234.986 164.446 239.233 159.94 240.356 160.036C241.479 160.131 249.726 159.679 250.424 161.611C251.123 163.542 250.013 162.693 248.876 163.337C247.739 163.981 242.096 164.707 242.096 164.707C242.096 164.707 246.959 165.104 248.424 165.967C249.89 166.83 256.096 172.556 256.068 173.679C256.041 174.803 255.287 175.049 253.781 175.049C252.274 175.049 253.383 176.131 252.972 177.214C252.561 178.296 249.589 178.063 249.589 178.063C249.589 178.063 249.849 181.816 247.603 181.624C245.356 181.433 241.329 178.501 241.329 178.501C241.329 178.501 233.014 181.542 230.027 181.309C228.066 181.221 226.117 181.661 224.383 182.583C226.895 175.995 230.477 169.867 234.986 164.446Z" fill="white"/>
<mask id="mask4_298_3521" style="mask-type:luminance" maskUnits="userSpaceOnUse" x="224" y="160" width="33" height="23">
<path d="M234.986 164.446C234.986 164.446 239.233 159.94 240.356 160.036C241.479 160.131 249.726 159.679 250.424 161.611C251.123 163.542 250.013 162.693 248.876 163.337C247.739 163.981 242.096 164.707 242.096 164.707C242.096 164.707 246.959 165.104 248.424 165.967C249.89 166.83 256.096 172.556 256.068 173.679C256.041 174.803 255.287 175.049 253.781 175.049C252.274 175.049 253.383 176.131 252.972 177.214C252.561 178.296 249.589 178.063 249.589 178.063C249.589 178.063 249.849 181.816 247.603 181.624C245.356 181.433 241.329 178.501 241.329 178.501C241.329 178.501 233.014 181.542 230.027 181.309C228.066 181.221 226.117 181.661 224.383 182.583C226.895 175.995 230.477 169.867 234.986 164.446Z" fill="white"/>
</mask>
<g mask="url(#mask4_298_3521)">
<g style="mix-blend-mode:multiply" opacity="0.5">
<path d="M234.986 164.446C230.489 169.83 226.907 175.915 224.383 182.46C226.117 181.538 228.066 181.098 230.027 181.186C231.009 181.203 231.989 181.097 232.945 180.871C233.54 178.251 233.893 175.583 234 172.898C234 168.912 240.356 160.036 240.356 160.036C239.219 159.94 234.986 164.446 234.986 164.446Z" fill="#479FE2"/>
</g>
</g>
<path d="M234.986 164.446C234.986 164.446 239.233 159.94 240.356 160.036C241.479 160.131 249.726 159.679 250.424 161.611C251.123 163.542 250.013 162.693 248.876 163.337C247.739 163.981 242.096 164.707 242.096 164.707C242.096 164.707 246.959 165.104 248.424 165.967C249.89 166.83 256.096 172.556 256.068 173.679C256.041 174.803 255.287 175.049 253.781 175.049C252.274 175.049 253.383 176.131 252.972 177.214C252.561 178.296 249.589 178.063 249.589 178.063C249.589 178.063 249.849 181.816 247.603 181.624C245.356 181.433 241.329 178.501 241.329 178.501C241.329 178.501 233.014 181.542 230.027 181.309C228.066 181.221 226.117 181.661 224.383 182.583C226.895 175.995 230.477 169.867 234.986 164.446Z" stroke="#263238" stroke-linecap="round" stroke-linejoin="round"/>
<path d="M253.781 174.926L246.452 169.104L240.479 168.241" stroke="#263238" stroke-linecap="round" stroke-linejoin="round"/>
<path d="M249.575 177.94L241.452 173.542L237.726 172.871" stroke="#263238" stroke-linecap="round" stroke-linejoin="round"/>
<path d="M325.013 158.899C325.013 158.899 320.767 154.405 319.643 154.488C318.52 154.57 310.274 154.145 309.575 156.063C308.876 157.981 309.986 157.145 311.123 157.803C313.338 158.443 315.608 158.879 317.904 159.104C317.904 159.104 313.041 159.501 311.575 160.378C310.109 161.255 303.904 166.967 303.931 168.077C303.958 169.186 304.712 169.446 306.219 169.446C307.726 169.446 306.616 170.529 307.027 171.611C307.438 172.693 310.411 172.446 310.411 172.446C310.411 172.446 310.15 176.2 312.397 176.022C314.643 175.844 318.671 172.898 318.671 172.898C318.671 172.898 326.986 175.94 329.972 175.638C331.935 175.547 333.886 175.992 335.616 176.926C333.095 170.376 329.512 164.285 325.013 158.899Z" fill="white" stroke="#263238" stroke-linecap="round" stroke-linejoin="round"/>
<path d="M306.219 169.378L313.534 163.57L319.506 162.707" stroke="#263238" stroke-linecap="round" stroke-linejoin="round"/>
<path d="M310.411 172.392L318.534 168.008L322.26 167.323" stroke="#263238" stroke-linecap="round" stroke-linejoin="round"/>
<path d="M329.904 165.72C329.904 165.72 343.999 164.104 348.835 167.734C353.671 171.364 352.862 180.611 352.862 180.611" stroke="#263238" stroke-linecap="round" stroke-linejoin="round"/>
<path d="M218.548 463.802C218.548 463.802 220.055 460.802 224.863 461.404C229.671 462.007 232.685 467.72 229.37 469.514C226.055 471.309 218.548 463.802 218.548 463.802Z" fill="#479FE2" stroke="#263238" stroke-linecap="round" stroke-linejoin="round"/>
<path d="M225.657 324.295C225.657 324.295 236.972 326.569 242.411 330.186C247.849 333.802 248.74 334.706 250.096 341.953C251.452 349.199 246.479 368.651 246.479 378.61C246.479 388.569 239.233 449.213 239.233 454.213C239.233 459.213 244.219 469.596 243.767 473.213C243.575 475.813 243.882 478.426 244.671 480.911C244.671 480.911 247.835 483.171 243.767 483.651C239.698 484.13 239.233 484.555 235.616 482.747C232 480.939 230.137 471.884 227.014 469.172C223.89 466.459 222.041 463.295 222.041 461.021C222.041 458.747 229.274 450.172 229.274 450.172C229.274 450.172 228.37 437.5 227.904 426.637C227.438 415.774 222.425 391.788 222.425 381.432C222.425 371.076 229.274 346.583 229.274 346.583C229.274 346.583 211.699 348.734 204.849 344.213C198 339.692 205.753 319.775 225.657 324.295Z" fill="white" stroke="#263238" stroke-linecap="round" stroke-linejoin="round"/>
<path d="M227.014 469.117C227.014 469.117 218.794 462.062 218.548 463.857C218.301 465.651 218.246 479.802 218.849 481.295C219.452 482.788 235.685 484.309 244.109 485.815C252.534 487.322 249.219 481.898 247.411 480.692C245.603 479.487 227.014 469.117 227.014 469.117Z" fill="#479FE2" stroke="#263238" stroke-linecap="round" stroke-linejoin="round"/>
<path opacity="0.2" d="M227.014 469.117C227.014 469.117 218.794 462.062 218.548 463.857C218.301 465.651 218.246 479.802 218.849 481.295C219.452 482.788 235.685 484.309 244.109 485.815C252.534 487.322 249.219 481.898 247.411 480.692C245.603 479.487 227.014 469.117 227.014 469.117Z" fill="black"/>
<path d="M229.37 477.089C231.015 475.117 232.939 473.396 235.082 471.98C237.627 470.173 240.483 468.849 243.507 468.076L247.411 475.582C244.719 476.218 242.101 477.136 239.603 478.322C237.706 479.471 235.985 480.888 234.493 482.528C234.493 482.528 229.972 479.5 229.37 477.089Z" fill="#263238" stroke="#263238" stroke-linecap="round" stroke-linejoin="round"/>
<path d="M237.493 468.678C237.113 468.726 236.747 468.851 236.417 469.045C236.087 469.24 235.801 469.499 235.575 469.809C235.349 470.118 235.189 470.47 235.104 470.843C235.019 471.217 235.012 471.603 235.082 471.98C235.383 474.993 235.685 484.61 236.89 484.911C238.096 485.213 253.123 487.651 258.534 487.911C263.945 488.172 269.959 488.213 269.959 485.514C269.959 482.815 269.054 481.61 267.863 481.61C266.671 481.61 263.945 480.706 260.342 478.61C256.739 476.514 248.013 468.391 245.274 468.089C242.534 467.788 239 465.966 237.493 468.678Z" fill="#479FE2" stroke="#263238" stroke-linecap="round" stroke-linejoin="round"/>
<path opacity="0.2" d="M237.493 468.678C237.113 468.726 236.747 468.851 236.417 469.045C236.087 469.24 235.801 469.499 235.575 469.809C235.349 470.118 235.189 470.47 235.104 470.843C235.019 471.217 235.012 471.603 235.082 471.98C235.383 474.993 235.685 484.61 236.89 484.911C238.096 485.213 253.123 487.651 258.534 487.911C263.945 488.172 269.959 488.213 269.959 485.514C269.959 482.815 269.054 481.61 267.863 481.61C266.671 481.61 263.945 480.706 260.342 478.61C256.739 476.514 248.013 468.391 245.274 468.089C242.534 467.788 239 465.966 237.493 468.678Z" fill="black"/>
<path d="M111.439 481.61C111.439 480.255 111.037 478.931 110.284 477.805C109.532 476.678 108.462 475.8 107.21 475.282C105.959 474.764 104.582 474.628 103.253 474.892C101.924 475.156 100.704 475.809 99.7461 476.767C98.7882 477.725 98.1359 478.945 97.8716 480.274C97.6073 481.602 97.7429 482.979 98.2614 484.231C98.7798 485.483 99.6576 486.552 100.784 487.305C101.91 488.057 103.235 488.459 104.589 488.459C106.406 488.459 108.148 487.737 109.432 486.453C110.717 485.169 111.439 483.426 111.439 481.61Z" fill="#263238" stroke="#263238" stroke-linecap="round" stroke-linejoin="round"/>
<path d="M104.589 485.021C106.481 485.021 108.014 483.488 108.014 481.596C108.014 479.705 106.481 478.171 104.589 478.171C102.698 478.171 101.165 479.705 101.165 481.596C101.165 483.488 102.698 485.021 104.589 485.021Z" fill="white" stroke="#263238" stroke-linecap="round" stroke-linejoin="round"/>
<path d="M184.836 481.61C184.836 480.255 184.434 478.931 183.681 477.805C182.929 476.678 181.859 475.8 180.607 475.282C179.356 474.764 177.979 474.628 176.65 474.892C175.321 475.156 174.101 475.809 173.143 476.767C172.185 477.725 171.533 478.945 171.269 480.274C171.004 481.602 171.14 482.979 171.658 484.231C172.177 485.483 173.055 486.552 174.181 487.305C175.307 488.057 176.632 488.459 177.986 488.459C179.803 488.459 181.545 487.737 182.829 486.453C184.114 485.169 184.836 483.426 184.836 481.61Z" fill="#263238" stroke="#263238" stroke-linecap="round" stroke-linejoin="round"/>
<path d="M181.411 481.61C181.411 480.933 181.21 480.27 180.834 479.707C180.457 479.144 179.923 478.705 179.297 478.446C178.671 478.187 177.982 478.119 177.318 478.251C176.654 478.383 176.044 478.709 175.565 479.188C175.086 479.667 174.76 480.277 174.627 480.942C174.495 481.606 174.563 482.295 174.822 482.92C175.082 483.546 175.52 484.081 176.084 484.457C176.647 484.834 177.309 485.034 177.986 485.034C178.895 485.034 179.766 484.674 180.408 484.031C181.05 483.389 181.411 482.518 181.411 481.61Z" fill="white" stroke="#263238" stroke-linecap="round" stroke-linejoin="round"/>
<path d="M208.822 481.61C208.822 480.255 208.42 478.931 207.668 477.805C206.915 476.678 205.845 475.8 204.594 475.282C203.342 474.764 201.965 474.628 200.636 474.892C199.308 475.156 198.087 475.809 197.129 476.767C196.171 477.725 195.519 478.945 195.255 480.274C194.991 481.602 195.126 482.979 195.645 484.231C196.163 485.483 197.041 486.552 198.167 487.305C199.294 488.057 200.618 488.459 201.973 488.459C203.789 488.459 205.531 487.737 206.816 486.453C208.1 485.169 208.822 483.426 208.822 481.61Z" fill="#263238" stroke="#263238" stroke-linecap="round" stroke-linejoin="round"/>
<path d="M205.397 481.61C205.4 480.929 205.2 480.262 204.823 479.694C204.447 479.127 203.91 478.684 203.281 478.422C202.652 478.16 201.96 478.091 201.291 478.223C200.623 478.355 200.009 478.683 199.528 479.165C199.046 479.647 198.718 480.26 198.586 480.929C198.454 481.597 198.523 482.289 198.785 482.918C199.047 483.547 199.49 484.084 200.057 484.461C200.625 484.838 201.291 485.037 201.973 485.035C202.881 485.035 203.752 484.674 204.394 484.031C205.036 483.389 205.397 482.518 205.397 481.61Z" fill="white" stroke="#263238" stroke-linecap="round" stroke-linejoin="round"/>
<path d="M167.356 364.021H152.863V473.761H167.356V364.021Z" fill="#263238" stroke="#263238" stroke-linecap="round" stroke-linejoin="round"/>
<path d="M171.233 421.363H149.014V473.761H171.233V421.363Z" fill="#263238" stroke="#263238" stroke-linecap="round" stroke-linejoin="round"/>
<path d="M103.178 471.692H205.548C207.001 471.692 208.395 472.269 209.422 473.297C210.45 474.325 211.027 475.718 211.027 477.172V477.898H97.6989V477.172C97.6989 475.718 98.2762 474.325 99.3038 473.297C100.331 472.269 101.725 471.692 103.178 471.692Z" fill="#263238" stroke="#263238" stroke-linecap="round" stroke-linejoin="round"/>
<path d="M145.315 321.583H126.685V351.61H145.315V321.583Z" fill="#263238" stroke="#263238" stroke-linecap="round" stroke-linejoin="round"/>
<path d="M220.466 347.46H99.7537C94.2081 347.46 89.7126 351.955 89.7126 357.501V360.199C89.7126 365.745 94.2081 370.24 99.7537 370.24H220.466C226.011 370.24 230.507 365.745 230.507 360.199V357.501C230.507 351.955 226.011 347.46 220.466 347.46Z" fill="#479FE2" stroke="#263238" stroke-linecap="round" stroke-linejoin="round"/>
<path opacity="0.1" d="M220.466 347.46H99.7537C94.2081 347.46 89.7126 351.955 89.7126 357.501V360.199C89.7126 365.745 94.2081 370.24 99.7537 370.24H220.466C226.011 370.24 230.507 365.745 230.507 360.199V357.501C230.507 351.955 226.011 347.46 220.466 347.46Z" fill="black"/>
<path d="M230.507 358.843C230.507 355.824 229.307 352.929 227.173 350.794C225.038 348.659 222.142 347.46 219.123 347.46H157.014C155.485 347.407 153.961 347.662 152.532 348.21C151.104 348.759 149.801 349.589 148.701 350.652C147.6 351.715 146.725 352.989 146.127 354.397C145.53 355.806 145.221 357.32 145.221 358.85C145.221 360.38 145.53 361.894 146.127 363.303C146.725 364.711 147.6 365.985 148.701 367.047C149.801 368.11 151.104 368.941 152.532 369.489C153.961 370.038 155.485 370.293 157.014 370.24H219.123C222.144 370.237 225.039 369.034 227.173 366.897C229.308 364.76 230.507 361.863 230.507 358.843Z" fill="#479FE2" stroke="#263238" stroke-miterlimit="10"/>
<path opacity="0.1" d="M230.507 359.199C230.507 357.704 230.212 356.224 229.64 354.843C229.068 353.462 228.23 352.207 227.173 351.15C226.115 350.093 224.861 349.254 223.479 348.682C222.098 348.11 220.618 347.816 219.123 347.816H157.014C155.485 347.763 153.961 348.018 152.532 348.567C151.104 349.115 149.801 349.946 148.701 351.009C147.6 352.071 146.725 353.345 146.127 354.753C145.53 356.162 145.221 357.676 145.221 359.206C145.221 360.736 145.53 362.25 146.127 363.659C146.725 365.067 147.6 366.341 148.701 367.404C149.801 368.467 151.104 369.297 152.532 369.846C153.961 370.394 155.485 370.65 157.014 370.596H219.123C220.619 370.596 222.101 370.302 223.483 369.729C224.865 369.156 226.12 368.316 227.177 367.257C228.235 366.199 229.073 364.942 229.644 363.56C230.215 362.177 230.508 360.695 230.507 359.199Z" fill="black"/>
<path d="M172.699 321.597H100.096C98.3987 321.597 96.7183 321.258 95.1542 320.599C93.59 319.939 92.1738 318.973 90.9889 317.758C89.8041 316.542 88.8747 315.102 88.2555 313.521C87.6363 311.941 87.3399 310.252 87.3838 308.556L89.1784 237.775C89.2571 234.457 90.6316 231.302 93.0075 228.985C95.3834 226.668 98.572 225.373 101.891 225.378H161.795C164.834 225.372 167.774 226.457 170.082 228.436C172.389 230.414 173.911 233.154 174.37 236.159L185.26 306.994C185.532 308.802 185.411 310.648 184.905 312.404C184.398 314.161 183.519 315.788 182.327 317.175C181.134 318.561 179.657 319.673 177.995 320.436C176.334 321.2 174.527 321.595 172.699 321.597Z" fill="#479FE2" stroke="#263238" stroke-linecap="round" stroke-linejoin="round"/>
<path opacity="0.1" d="M172.699 321.597H100.096C98.3987 321.597 96.7183 321.258 95.1542 320.599C93.59 319.939 92.1738 318.973 90.9889 317.758C89.8041 316.542 88.8747 315.102 88.2555 313.521C87.6363 311.941 87.3399 310.252 87.3838 308.556L89.1784 237.775C89.2571 234.457 90.6316 231.302 93.0075 228.985C95.3834 226.668 98.572 225.373 101.891 225.378H161.795C164.834 225.372 167.774 226.457 170.082 228.436C172.389 230.414 173.911 233.154 174.37 236.159L185.26 306.994C185.532 308.802 185.411 310.648 184.905 312.404C184.398 314.161 183.519 315.788 182.327 317.175C181.134 318.561 179.657 319.673 177.995 320.436C176.334 321.2 174.527 321.595 172.699 321.597Z" fill="black"/>
<path d="M148.986 366.61L117.151 387.569" stroke="#263238" stroke-linecap="round" stroke-linejoin="round"/>
<path d="M115.945 384.35L110.466 388.035C110.037 388.327 109.678 388.711 109.415 389.159C109.151 389.606 108.99 390.107 108.943 390.624C108.896 391.141 108.964 391.662 109.142 392.15C109.32 392.638 109.604 393.08 109.973 393.446L110.439 393.884C111.054 394.49 111.872 394.846 112.735 394.884C113.597 394.922 114.443 394.639 115.11 394.09L120.123 389.98C120.496 389.672 120.8 389.29 121.018 388.859C121.236 388.428 121.362 387.957 121.389 387.474C121.416 386.992 121.343 386.509 121.175 386.057C121.007 385.604 120.747 385.191 120.411 384.843C119.844 384.249 119.085 383.873 118.268 383.783C117.451 383.693 116.629 383.894 115.945 384.35Z" fill="#263238" stroke="#263238" stroke-linecap="round" stroke-linejoin="round"/>
<path d="M153.959 471.692H185.37C186.823 471.692 188.217 472.269 189.244 473.297C190.272 474.325 190.849 475.718 190.849 477.172V477.898H153.959V471.692Z" fill="#263238" stroke="#263238" stroke-linecap="round" stroke-linejoin="round"/>
<path d="M179.11 285.117C185.306 285.117 190.329 282.259 190.329 278.734C190.329 275.208 185.306 272.35 179.11 272.35C172.913 272.35 167.89 275.208 167.89 278.734C167.89 282.259 172.913 285.117 179.11 285.117Z" fill="white" stroke="#263238" stroke-linecap="round" stroke-linejoin="round"/>
<path d="M210.329 331.09C210.329 331.09 228.425 331.994 232.507 341.501C233.347 344.756 233.807 348.098 233.877 351.46C233.877 356.432 250.616 452.377 251.068 454.199C251.52 456.021 261.479 470.035 262.835 473.199C264.192 476.363 265.575 479.089 265.575 479.089C265.575 479.089 269.685 480.898 269.205 482.254C268.726 483.61 259.246 484.062 255.178 484.062C251.109 484.062 246.575 474.117 243.863 473.199C241.15 472.281 237.972 469.089 237.972 467.322C237.972 465.555 239.342 452.391 239.342 452.391C237.606 441.652 234.57 431.164 230.301 421.158C224.246 407.364 216.712 387.213 215.808 377.72C214.904 368.227 214.904 359.158 214.904 359.158L203.479 357.336C203.479 357.336 202.11 333.802 210.329 331.09Z" fill="white" stroke="#263238" stroke-linecap="round" stroke-linejoin="round"/>
<path d="M247.109 477.692C247.109 477.692 250.726 462.966 260.041 468.678L263.945 475.281C263.945 475.281 255.233 475.281 252.52 483.706C251.196 483.222 250.01 482.421 249.067 481.372C248.123 480.324 247.451 479.06 247.109 477.692Z" fill="#263238" stroke="#263238" stroke-linecap="round" stroke-linejoin="round"/>
<path d="M172.877 303.61L172.438 303.679C168.329 286.939 162.781 269.83 162.781 269.83C162.781 269.83 135.562 277.021 119.863 272.145C119.863 272.145 111.877 311.473 111.877 321.747C111.877 329.966 110.178 338.323 116.397 343.145C116.999 344.03 117.772 344.786 118.671 345.367C119.57 345.948 120.576 346.343 121.63 346.528C138.603 349.72 167.849 348.61 172.726 349.583C177.603 350.555 203.479 357.336 203.479 357.336C203.479 357.336 205.027 343.062 209.411 333.802C213.794 324.542 233.808 326.117 233.808 326.117L172.877 303.61Z" fill="#263238" stroke="#263238" stroke-linecap="round" stroke-linejoin="round"/>
<path d="M166.589 193.94C166.589 193.94 162.836 189.227 158.781 194.419C154.726 199.611 157.945 217.638 159.945 224.844C161.945 232.049 195.726 261.939 198.904 264.159C202.082 266.378 243.493 275.734 247.109 274.021C250.726 272.309 251.767 263.638 249.712 258.953C247.657 254.268 208.959 244.323 208.959 244.323L166.589 193.94Z" fill="white"/>
<mask id="mask5_298_3521" style="mask-type:luminance" maskUnits="userSpaceOnUse" x="156" y="191" width="95" height="84">
<path d="M166.589 193.94C166.589 193.94 162.836 189.227 158.781 194.419C154.726 199.611 157.945 217.638 159.945 224.844C161.945 232.049 195.726 261.939 198.904 264.159C202.082 266.378 243.493 275.734 247.109 274.021C250.726 272.309 251.767 263.638 249.712 258.953C247.657 254.268 208.959 244.323 208.959 244.323L166.589 193.94Z" fill="white"/>
</mask>
<g mask="url(#mask5_298_3521)">
<g style="mix-blend-mode:multiply" opacity="0.5">
<path d="M198.904 264.186C202.082 266.391 243.493 275.761 247.109 274.049C249.192 273.063 250.411 269.747 250.685 266.227C244.287 263.652 236.698 261.912 233.178 262.117C228.068 262.405 231.493 267.172 223.301 265.83C215.109 264.487 205.767 260.35 197.274 255.501C188.781 250.652 173.534 236.323 173.534 236.323L185.493 237.693L171.863 233.487L183.712 229.035L173.534 228.433C174.186 226.82 174.49 225.088 174.425 223.35C174.425 219.83 167.712 206.761 167.712 206.761L160.589 226.337C165.562 235.268 195.904 262.09 198.904 264.186Z" fill="#479FE2"/>
</g>
</g>
<path d="M166.589 193.94C166.589 193.94 162.836 189.227 158.781 194.419C154.726 199.611 157.945 217.638 159.945 224.844C161.945 232.049 195.726 261.939 198.904 264.159C202.082 266.378 243.493 275.734 247.109 274.021C250.726 272.309 251.767 263.638 249.712 258.953C247.657 254.268 208.959 244.323 208.959 244.323L166.589 193.94Z" stroke="#263238" stroke-linecap="round" stroke-linejoin="round"/>
<path d="M179.89 231.789L170.589 235.391L186.233 240.597" stroke="#263238" stroke-width="0.5" stroke-linecap="round" stroke-linejoin="round"/>
<path d="M247.205 258.912C246.01 259.157 244.916 259.758 244.068 260.635C243.219 261.513 242.656 262.626 242.452 263.83C241.644 268.117 245.863 271.775 245.863 271.775C245.863 271.775 254.753 274.83 257.411 267.665C260.068 260.501 251.507 258.638 247.205 258.912Z" fill="white"/>
<mask id="mask6_298_3521" style="mask-type:luminance" maskUnits="userSpaceOnUse" x="242" y="258" width="16" height="15">
<path d="M247.205 258.912C246.01 259.157 244.916 259.758 244.068 260.635C243.219 261.513 242.656 262.626 242.452 263.83C241.644 268.117 245.863 271.775 245.863 271.775C245.863 271.775 254.753 274.83 257.411 267.665C260.068 260.501 251.507 258.638 247.205 258.912Z" fill="white"/>
</mask>
<g mask="url(#mask6_298_3521)">
<g style="mix-blend-mode:multiply" opacity="0.5">
<path d="M245.863 271.775C245.863 271.775 253.452 274.364 256.698 269.145C252.239 266.663 247.472 264.779 242.52 263.542C242.491 263.636 242.468 263.732 242.452 263.83C241.644 268.117 245.863 271.775 245.863 271.775Z" fill="#479FE2"/>
</g>
</g>
<path d="M247.205 258.912C246.01 259.157 244.916 259.758 244.068 260.635C243.219 261.513 242.656 262.626 242.452 263.83C241.644 268.117 245.863 271.775 245.863 271.775C245.863 271.775 254.753 274.83 257.411 267.665C260.068 260.501 251.507 258.638 247.205 258.912Z" stroke="#263238" stroke-linecap="round" stroke-linejoin="round"/>
<path d="M273.465 268.816C275.949 269.214 278.236 270.406 279.986 272.213C282.575 275.131 280.465 276.323 278.808 275.898C277.15 275.473 271.698 267.419 273.465 268.816Z" fill="white" stroke="#263238" stroke-linecap="round" stroke-linejoin="round"/>
<path d="M271.739 268.282C274.145 269.02 276.246 270.52 277.726 272.556C279.89 275.789 277.63 276.665 276.054 276.035C274.479 275.405 270.178 266.652 271.739 268.282Z" fill="white" stroke="#263238" stroke-linecap="round" stroke-linejoin="round"/>
<path d="M256.233 261.898C256.233 261.898 252.123 263.405 251.671 266.008C251.596 266.82 251.692 267.639 251.951 268.413C252.211 269.187 252.629 269.898 253.178 270.501C253.178 270.501 257.287 273.789 258.849 274.131C260.411 274.474 263.918 276.473 264.328 274.569C264.739 272.665 260.575 270.98 260.575 270.98C260.575 270.98 268.534 271.46 268.794 273.063C269.054 274.665 271.931 276.323 274.479 276.364C277.027 276.405 273.945 271.254 273.328 269.967C272.712 268.679 261.328 261.994 256.233 261.898Z" fill="white" stroke="#263238" stroke-linecap="round" stroke-linejoin="round"/>
<path d="M125.781 181.159C125.781 181.159 100.74 195.72 98.7811 196.679C96.8222 197.638 94.877 212.707 94.877 214.131C94.877 215.556 119.918 272.145 119.918 272.145C119.918 272.145 126.082 277.364 144.123 277.364C162.164 277.364 163.562 274.624 163.562 274.624L165 250.748C165 250.748 171.164 234.611 171.644 231.761C172.123 228.912 166.589 193.94 166.589 193.94L140.973 176.857C140.973 176.857 130.534 170.72 125.781 181.159Z" fill="white"/>
<mask id="mask7_298_3521" style="mask-type:luminance" maskUnits="userSpaceOnUse" x="94" y="175" width="78" height="103">
<path d="M125.781 181.159C125.781 181.159 100.74 195.72 98.7811 196.679C96.8222 197.638 94.877 212.707 94.877 214.131C94.877 215.556 119.918 272.145 119.918 272.145C119.918 272.145 126.082 277.364 144.123 277.364C162.164 277.364 163.562 274.624 163.562 274.624L165 250.748C165 250.748 171.164 234.611 171.644 231.761C172.123 228.912 166.589 193.94 166.589 193.94L140.973 176.857C140.973 176.857 130.534 170.72 125.781 181.159Z" fill="white"/>
</mask>
<g mask="url(#mask7_298_3521)">
<g style="mix-blend-mode:multiply" opacity="0.5">
<path d="M101.329 207.035C103.288 203.898 121.315 192.145 121.315 192.145L127.973 188.227L136.507 175.282C133.082 174.652 128.507 175.172 125.781 181.159C125.781 181.159 100.685 195.72 98.7811 196.666C96.877 197.611 94.877 212.693 94.877 214.118C94.877 214.433 96.055 217.337 97.8906 221.707C98.603 215.227 99.9591 209.227 101.329 207.035Z" fill="#479FE2"/>
</g>
</g>
<path d="M125.781 181.159C125.781 181.159 100.74 195.72 98.7811 196.679C96.8222 197.638 94.877 212.707 94.877 214.131C94.877 215.556 119.918 272.145 119.918 272.145C119.918 272.145 126.082 277.364 144.123 277.364C162.164 277.364 163.562 274.624 163.562 274.624L165 250.748C165 250.748 171.164 234.611 171.644 231.761C172.123 228.912 166.589 193.94 166.589 193.94L140.973 176.857C140.973 176.857 130.534 170.72 125.781 181.159Z" stroke="#263238" stroke-linecap="round" stroke-linejoin="round"/>
<path d="M134.178 203.748L141.48 211.624L139.959 245.117L150.644 247.939L151.767 233.309L155.699 248.501L163.575 240.624L146.548 211.063L148.795 202.063L139.233 191.378L133.055 206.008" fill="#263238"/>
<path d="M134.178 203.748L141.48 211.624L139.959 245.117L150.644 247.939L151.767 233.309L155.699 248.501L163.575 240.624L146.548 211.063L148.795 202.063L139.233 191.378L133.055 206.008" stroke="#263238" stroke-linecap="round" stroke-linejoin="round"/>
<path d="M120.891 181.241C120.891 181.241 122.452 191.666 124.534 196.309C126.617 200.953 131.315 208.83 131.315 208.83L141.219 198.912L151.137 205.761C151.137 205.761 150.096 188.556 146.438 180.734C142.781 172.912 125.055 165.077 120.891 181.241Z" fill="white" stroke="#263238" stroke-linecap="round" stroke-linejoin="round"/>
<g style="mix-blend-mode:multiply" opacity="0.5">
<path d="M127.973 188.227L137.877 173.159C136.069 172.367 134.135 171.903 132.165 171.789C130.466 172.131 128.548 172.556 126.521 173.008C124.041 174.378 121.986 176.953 120.891 181.227C120.891 181.227 121.671 186.487 122.877 191.213L127.973 188.227Z" fill="#479FE2"/>
</g>
<path d="M145.397 178.104C144.056 181.057 143.347 184.258 143.315 187.501C143.315 192.707 144.356 198.46 144.356 201.063V208.885C144.356 208.885 138.096 201.063 133.397 195.323C128.699 189.583 125.055 184.364 125.575 179.679C126.096 174.994 130.795 156.72 130.795 156.72C133.277 156.698 135.715 157.37 137.836 158.66C139.956 159.95 141.674 161.807 142.795 164.022C146.959 171.844 145.397 178.104 145.397 178.104Z" fill="white" stroke="#263238" stroke-linecap="round" stroke-linejoin="round"/>
<g style="mix-blend-mode:multiply" opacity="0.5">
<path d="M129.151 169.035L127.589 169.789C126.63 173.898 125.781 177.83 125.576 179.679C125.069 184.2 128.452 189.268 132.904 194.748L133.466 183.967L145.397 178.145L135.808 168.679L129.151 169.035Z" fill="#479FE2"/>
</g>
<path d="M155.534 172.501C155.534 172.501 152.082 178.898 155.808 179.159C159.534 179.419 158.726 176.227 159.26 175.172C159.795 174.118 162.192 176.542 160.863 181.556C159.534 186.57 152.877 190.076 148.877 186.077C144.877 182.077 145.959 177.857 147.288 174.638C148.617 171.419 153.973 169.844 155.534 172.501Z" fill="#263238" stroke="#263238" stroke-linecap="round" stroke-linejoin="round"/>
<path d="M148.055 115.953C146.89 115.789 145.671 115.666 144.411 115.597C139.822 115.364 134.822 115.666 131.247 118.529C123.822 124.474 125.069 136.419 125.603 144.734C126.206 154.173 126.082 167.94 133.165 174.775C145.123 186.309 163.822 173.967 163.822 160.296C163.822 154.515 164.041 145.707 164.425 143.734C164.924 141.297 165.267 138.831 165.452 136.351C166.274 123.762 159.137 117.529 148.055 115.953Z" fill="white" stroke="#263238" stroke-linecap="round" stroke-linejoin="round"/>
<g style="mix-blend-mode:multiply" opacity="0.5">
<path d="M152.466 177.241C149.12 177.194 145.78 176.938 142.466 176.474C137.384 175.693 130.329 167.46 133.849 156.104C137.37 144.748 137.384 138.857 137.384 138.857L125.397 131.364C125.123 135.82 125.196 140.29 125.617 144.734C126.219 154.173 126.096 167.94 133.178 174.775C138.986 180.392 146.384 180.337 152.466 177.241Z" fill="#479FE2"/>
</g>
<path d="M145.671 152.392C146.42 152.392 147.027 151.349 147.027 150.063C147.027 148.777 146.42 147.734 145.671 147.734C144.922 147.734 144.315 148.777 144.315 150.063C144.315 151.349 144.922 152.392 145.671 152.392Z" fill="#263238"/>
<path d="M159.055 150.638C158.973 151.926 158.288 152.926 157.548 152.871C156.808 152.816 156.26 151.748 156.343 150.46C156.425 149.173 157.096 148.173 157.849 148.227C158.603 148.282 159.137 149.351 159.055 150.638Z" fill="#263238"/>
<path d="M141.466 144.488C141.466 144.488 144.206 138.707 148.603 141.433Z" fill="white"/>
<path d="M141.466 144.488C141.466 144.488 144.206 138.707 148.603 141.433" stroke="#263238" stroke-linecap="round" stroke-linejoin="round"/>
<path d="M155.74 142.447C155.74 142.447 158.986 138.721 160.836 144.83Z" fill="white"/>
<path d="M155.74 142.447C155.74 142.447 158.986 138.721 160.836 144.83" stroke="#263238" stroke-linecap="round" stroke-linejoin="round"/>
<path d="M153.63 154.693C153.63 154.926 153.63 155.159 153.63 155.364C153.973 157.748 155.671 159.474 155 160.46C154.329 161.446 150.89 161.83 150.89 161.83" fill="white"/>
<path d="M153.63 154.693C153.63 154.926 153.63 155.159 153.63 155.364C153.973 157.748 155.671 159.474 155 160.46C154.329 161.446 150.89 161.83 150.89 161.83" stroke="#263238" stroke-linecap="round" stroke-linejoin="round"/>
<path d="M149.617 167.268C149.617 167.268 143.63 169.118 141.397 164.282Z" fill="white"/>
<path d="M149.617 167.268C149.617 167.268 143.63 169.118 141.397 164.282" stroke="#263238" stroke-linecap="round" stroke-linejoin="round"/>
<path d="M144.507 155.762C148.396 155.762 151.548 152.609 151.548 148.72C151.548 144.832 148.396 141.679 144.507 141.679C140.618 141.679 137.466 144.832 137.466 148.72C137.466 152.609 140.618 155.762 144.507 155.762Z" stroke="#263238" stroke-width="0.5" stroke-linecap="round" stroke-linejoin="round"/>
<path d="M160.438 155.762C163.926 155.762 166.753 152.609 166.753 148.72C166.753 144.832 163.926 141.679 160.438 141.679C156.951 141.679 154.123 144.832 154.123 148.72C154.123 152.609 156.951 155.762 160.438 155.762Z" stroke="#263238" stroke-width="0.5" stroke-linecap="round" stroke-linejoin="round"/>
<path d="M137.466 148.72L127.411 149.145" stroke="#263238" stroke-width="0.5" stroke-linecap="round" stroke-linejoin="round"/>
<path d="M166.753 148.72H164.178" stroke="#263238" stroke-width="0.5" stroke-linecap="round" stroke-linejoin="round"/>
<path d="M151.534 146.57H154.452" stroke="#263238" stroke-width="0.5" stroke-linecap="round" stroke-linejoin="round"/>
<path d="M160.48 107.638C155.223 106.72 149.909 106.171 144.575 105.995C144.575 105.995 135.247 101.597 122.658 106.543C104.644 113.584 105.041 137.638 109.507 152.967C110.877 157.597 114.096 164.625 111.137 169.268C109.274 172.2 103.945 170.638 104.754 166.611C105.562 162.583 106.877 163.953 107.945 163.419C109.014 162.885 107.411 162.351 105.014 161.556C102.617 160.762 100.521 162.926 100.219 168.2C99.4249 182.583 120.617 192.104 128.699 179.529C131.986 174.049 129.069 164.529 127.644 157.611C127.192 155.216 126.885 152.796 126.726 150.364C129.284 150.119 131.655 148.921 133.37 147.008C134.64 145.268 135.723 143.399 136.603 141.433C137.562 141.433 138.562 141.501 139.658 141.611C150.617 142.707 153.932 124.049 153.932 124.049C153.932 124.049 159.411 134.474 161.055 138.323L162.699 142.159C162.699 142.159 167.096 142.707 171.479 133.378C175.863 124.049 170.904 109.323 160.48 107.638Z" fill="#263238" stroke="#263238" stroke-linecap="round" stroke-linejoin="round"/>
<path d="M153.301 119.666C153.301 119.666 166.781 124.296 167.192 132.296C167.603 140.296 165.507 140.707 165.507 140.707" stroke="white" stroke-width="0.5" stroke-miterlimit="10" stroke-linecap="round"/>
<path d="M151.63 116.721C151.63 116.721 164.247 113.775 168.466 122.2" stroke="white" stroke-width="0.5" stroke-miterlimit="10" stroke-linecap="round"/>
<path d="M136.055 108.296C136.055 108.296 148.671 114.611 150.781 120.515C152.89 126.419 141.945 137.762 134.781 139.871C127.617 141.981 122.165 139.447 117.11 143.241C112.055 147.036 114.165 157.542 114.165 157.542" stroke="white" stroke-width="0.5" stroke-miterlimit="10" stroke-linecap="round"/>
<path d="M110.329 145.762C110.329 145.762 106.959 137.762 114.123 133.556C121.288 129.351 127.589 133.556 135.589 128.501C143.589 123.447 144.849 117.145 144.849 117.145" stroke="white" stroke-width="0.5" stroke-miterlimit="10" stroke-linecap="round"/>
<path d="M128.863 153.022C128.863 153.022 124.439 142.268 120 146.063C115.562 149.857 123.165 159.981 128.219 158.72" fill="white"/>
<path d="M128.863 153.022C128.863 153.022 124.439 142.268 120 146.063C115.562 149.857 123.165 159.981 128.219 158.72" stroke="#263238" stroke-linecap="round" stroke-linejoin="round"/>
<g opacity="0.37">
<path d="M128.863 153.022C128.863 153.022 124.439 142.268 120 146.063C115.562 149.857 123.165 159.981 128.219 158.72" fill="#479FE2"/>
<path d="M128.863 153.022C128.863 153.022 124.439 142.268 120 146.063C115.562 149.857 123.165 159.981 128.219 158.72" stroke="#263238" stroke-linecap="round" stroke-linejoin="round"/>
</g>
<path d="M101.836 197.761C101.836 197.761 99.6852 196.145 94.9044 199.748C90.1236 203.35 85.6715 219.734 88.6578 226.679C91.6441 233.624 99.6167 269.734 103.329 271.706C107.041 273.679 146.959 273.515 151.671 272.405C156.384 271.295 159.671 265.131 158.877 259.802C158.082 254.474 152.822 253.09 151.274 253.049C149.726 253.008 117.932 251.2 117.932 251.2L108.055 209.474" fill="white"/>
<mask id="mask8_298_3521" style="mask-type:luminance" maskUnits="userSpaceOnUse" x="87" y="197" width="72" height="77">
<path d="M101.836 197.761C101.836 197.761 99.6852 196.145 94.9044 199.748C90.1236 203.35 85.6715 219.734 88.6578 226.679C91.6441 233.624 99.6167 269.734 103.329 271.706C107.041 273.679 146.959 273.515 151.671 272.405C156.384 271.295 159.671 265.131 158.877 259.802C158.082 254.474 152.822 253.09 151.274 253.049C149.726 253.008 117.932 251.2 117.932 251.2L108.055 209.474" fill="white"/>
</mask>
<g mask="url(#mask8_298_3521)">
<g style="mix-blend-mode:multiply" opacity="0.5">
<path d="M152.932 263.46C150.658 260.652 114.466 265.542 110.603 263.46C106.74 261.378 104.877 257.419 107.699 254.748C110.521 252.076 102.302 251.474 102.37 249.117C102.439 246.761 107.151 246.117 106.85 242.967C106.548 239.816 96.3701 239.159 96.6167 230.145C96.8633 221.131 99.1235 210.227 101.165 207.145C102.295 205.845 103.594 204.703 105.028 203.748L101.836 197.748C101.836 197.748 99.6852 196.131 94.9044 199.734C90.1236 203.337 85.6715 219.734 88.6578 226.679C91.6441 233.624 99.6167 269.734 103.329 271.706C107.041 273.679 146.959 273.515 151.671 272.405C153.195 271.918 154.579 271.073 155.709 269.941C156.838 268.809 157.68 267.422 158.164 265.898C155.63 265.172 153.603 264.282 152.932 263.46Z" fill="#479FE2"/>
</g>
</g>
<path d="M101.836 197.761C101.836 197.761 99.6852 196.145 94.9044 199.748C90.1236 203.35 85.6715 219.734 88.6578 226.679C91.6441 233.624 99.6167 269.734 103.329 271.706C107.041 273.679 146.959 273.515 151.671 272.405C156.384 271.295 159.671 265.131 158.877 259.802C158.082 254.474 152.822 253.09 151.274 253.049C149.726 253.008 117.932 251.2 117.932 251.2L108.055 209.474" stroke="#263238" stroke-linecap="round" stroke-linejoin="round"/>
<path d="M105.836 258.898C108.192 251.967 117.918 251.83 117.918 251.83C114.039 250.814 109.983 250.669 106.041 251.405" stroke="#263238" stroke-width="0.5" stroke-linecap="round" stroke-linejoin="round"/>
<path d="M157.151 254.775C155.711 255.391 154.483 256.414 153.617 257.718C152.75 259.023 152.284 260.552 152.274 262.117C152.11 267.734 155.836 268.775 156.753 269.419C157.671 270.063 163.206 273.035 165.438 271.213C167.671 269.391 170.301 264.487 168.178 260.378C166.055 256.268 159.329 254.83 157.151 254.775Z" fill="white"/>
<mask id="mask9_298_3521" style="mask-type:luminance" maskUnits="userSpaceOnUse" x="152" y="254" width="17" height="18">
<path d="M157.151 254.775C155.711 255.391 154.483 256.414 153.617 257.718C152.75 259.023 152.284 260.552 152.274 262.117C152.11 267.734 155.836 268.775 156.753 269.419C157.671 270.063 163.206 273.035 165.438 271.213C167.671 269.391 170.301 264.487 168.178 260.378C166.055 256.268 159.329 254.83 157.151 254.775Z" fill="white"/>
</mask>
<g mask="url(#mask9_298_3521)">
<g style="mix-blend-mode:multiply" opacity="0.5">
<path d="M165.438 271.213C166.007 270.73 166.513 270.178 166.945 269.569L162.288 267.09C158.014 265.912 153.945 264.706 152.932 263.46C152.755 263.274 152.533 263.137 152.288 263.063C152.548 267.857 155.877 268.816 156.753 269.419C157.63 270.021 163.206 273.035 165.438 271.213Z" fill="#479FE2"/>
</g>
</g>
<path d="M157.151 254.775C155.711 255.391 154.483 256.414 153.617 257.718C152.75 259.023 152.284 260.552 152.274 262.117C152.11 267.734 155.836 268.775 156.753 269.419C157.671 270.063 163.206 273.035 165.438 271.213C167.671 269.391 170.301 264.487 168.178 260.378C166.055 256.268 159.329 254.83 157.151 254.775Z" stroke="#263238" stroke-linecap="round" stroke-linejoin="round"/>
<path d="M164.863 259.802C164.863 259.802 161.466 261.104 161 263.665C160.534 266.227 160.699 267.611 161.288 267.775C161.877 267.939 163.836 268.83 163.836 268.83L169.877 271.967C169.877 271.967 174.671 277.446 176.247 277.884C177.822 278.323 176.466 277.295 176.247 276.104C175.561 274.397 174.673 272.778 173.603 271.282L180.753 277.61C180.753 277.61 183.11 278.46 182.562 276.665C182.014 274.871 178.356 271.186 178.356 271.186L185.11 277.309C185.11 277.309 186.479 277.939 186.479 277.145C186.556 276.747 186.529 276.335 186.399 275.951C186.269 275.567 186.042 275.223 185.74 274.953C184.973 274.337 180.37 269.063 180.37 269.063L186.781 272.994C186.781 272.994 188.151 274.816 189.11 274.843C190.068 274.871 189.52 274.254 188.794 272.104C188.068 269.953 183.192 266.802 181.452 265.569C179.712 264.337 170.205 259.953 164.863 259.802Z" fill="white" stroke="#263238" stroke-linecap="round" stroke-linejoin="round"/>
<path d="M471.355 258.159H417.849L427.479 226.926H480.985L471.355 258.159Z" fill="#263238" stroke="#263238" stroke-linecap="round" stroke-linejoin="round"/>
<path d="M467.15 261.104H413.657L423.287 229.857H476.78L467.15 261.104Z" fill="white" stroke="#263238" stroke-linecap="round" stroke-linejoin="round"/>
<path d="M390.273 248.734H478.437C480.617 248.734 482.708 249.6 484.249 251.141C485.791 252.683 486.657 254.773 486.657 256.953V279.939H390.273V248.734Z" fill="#263238" stroke="#263238" stroke-linecap="round" stroke-linejoin="round"/>
<path d="M470.876 248.734H374.451V279.98H470.876V248.734Z" fill="white" stroke="#263238" stroke-linecap="round" stroke-linejoin="round"/>
<path d="M449.177 271.597H372.15V275.72H449.177V271.597Z" fill="white" stroke="#263238" stroke-linecap="round" stroke-linejoin="round"/>
<path d="M449.177 267.474H388.588V271.597H449.177V267.474Z" fill="#263238" stroke="#263238" stroke-linecap="round" stroke-linejoin="round"/>
<path d="M372.465 276.939H311.684V279.775H372.465V276.939Z" fill="white" stroke="#263238" stroke-linecap="round" stroke-linejoin="round"/>
<path d="M419.205 176.57H288.191V261.063H419.205V176.57Z" fill="white" stroke="#263238" stroke-linecap="round" stroke-linejoin="round"/>
<path d="M419.205 176.57H295.342V261.063H419.205V176.57Z" fill="#263238" stroke="#263238" stroke-linecap="round" stroke-linejoin="round"/>
<path d="M373.876 215.83H345.205V281.063H373.876V215.83Z" fill="white" stroke="#263238" stroke-linecap="round" stroke-linejoin="round"/>
<path d="M376.52 215.83H347.849V281.063H376.52V215.83Z" fill="#263238" stroke="#263238" stroke-linecap="round" stroke-linejoin="round"/>
<path d="M345.945 216.597H377.191V261.268" stroke="white" stroke-linejoin="round"/>
<path d="M287.287 275.419H199.52V280.008H287.287V275.419Z" fill="white" stroke="#263238" stroke-linecap="round" stroke-linejoin="round"/>
<path d="M309.972 275.419H222.205V280.008H309.972V275.419Z" fill="white" stroke="#263238" stroke-linecap="round" stroke-linejoin="round"/>
<path d="M196.137 287.569H61.6579L55.2744 484.089C55.2392 484.634 55.3127 485.179 55.4907 485.695C55.6686 486.211 55.9474 486.686 56.3107 487.092C56.6741 487.499 57.1148 487.829 57.6072 488.064C58.0995 488.299 58.6337 488.433 59.1785 488.459C60.186 488.43 61.146 488.024 61.8688 487.321C62.5916 486.619 63.0247 485.671 63.0826 484.665L75.9181 324.076C76.081 321.212 77.3103 318.513 79.3639 316.51C81.4176 314.507 84.1468 313.345 87.014 313.254H170.781C173.647 313.346 176.374 314.508 178.426 316.511C180.477 318.514 181.703 321.213 181.863 324.076L194.712 484.637C194.77 485.641 195.201 486.587 195.921 487.29C196.641 487.992 197.598 488.399 198.603 488.432C199.147 488.407 199.682 488.275 200.175 488.042C200.668 487.809 201.109 487.48 201.474 487.074C201.839 486.669 202.119 486.195 202.299 485.68C202.478 485.165 202.554 484.62 202.52 484.076L196.137 287.569Z" fill="#479FE2" stroke="#263238" stroke-linecap="round" stroke-linejoin="round"/>
<path d="M196.438 296.61L196.137 287.569H152.151H105.644H61.6579L61.3565 296.61H196.438Z" fill="#263238" stroke="#263238" stroke-linecap="round" stroke-linejoin="round"/>
<path d="M502.383 287.569H367.862L361.493 484.089C361.459 484.632 361.534 485.177 361.713 485.691C361.892 486.205 362.171 486.678 362.534 487.083C362.897 487.489 363.337 487.818 363.829 488.052C364.32 488.285 364.853 488.419 365.397 488.445C366.402 488.413 367.358 488.005 368.078 487.303C368.798 486.601 369.229 485.655 369.287 484.651L382.164 324.076C382.327 321.212 383.556 318.513 385.61 316.51C387.663 314.507 390.392 313.345 393.26 313.254H477.026C479.892 313.346 482.62 314.508 484.671 316.511C486.723 318.514 487.949 321.213 488.109 324.076L500.958 484.637C501.009 485.646 501.437 486.599 502.158 487.307C502.878 488.015 503.839 488.426 504.848 488.459C505.392 488.433 505.925 488.299 506.416 488.065C506.908 487.831 507.348 487.502 507.711 487.097C508.074 486.692 508.353 486.218 508.532 485.705C508.711 485.191 508.786 484.646 508.752 484.103L502.383 287.569Z" fill="#479FE2" stroke="#263238" stroke-linecap="round" stroke-linejoin="round"/>
<path d="M503.273 296.61L502.985 287.569H458.999H412.479H368.493L368.205 296.61H503.273Z" fill="#263238" stroke="#263238" stroke-linecap="round" stroke-linejoin="round"/>
<path d="M511.246 279.98H50.7538V290.336H511.246V279.98Z" fill="white" stroke="#263238" stroke-linecap="round" stroke-linejoin="round"/>
<path d="M511.259 279.98H181.205V290.336H511.259V279.98Z" fill="white" stroke="#263238" stroke-linecap="round" stroke-linejoin="round"/>
</svg>
