<svg width="64" height="64" viewBox="0 0 64 64" fill="none" xmlns="http://www.w3.org/2000/svg">
<path d="M32 28.8C37.3019 28.8 41.6 24.5019 41.6 19.2C41.6 13.8981 37.3019 9.6 32 9.6C26.6981 9.6 22.4 13.8981 22.4 19.2C22.4 24.5019 26.6981 28.8 32 28.8Z" fill="#2186D3"/>
<path d="M19.2 25.6C19.2 29.1346 16.3346 32 12.8 32C9.26537 32 6.4 29.1346 6.4 25.6C6.4 22.0654 9.26537 19.2 12.8 19.2C16.3346 19.2 19.2 22.0654 19.2 25.6Z" fill="#2186D3"/>
<path d="M4.77006 49.0421C4.22741 48.7266 3.80868 48.2297 3.62389 47.6299C3.34834 46.7353 3.2 45.785 3.2 44.8C3.2 39.4981 7.49806 35.2 12.8 35.2C14.4704 35.2 16.0412 35.6266 17.4093 36.3769C14.0585 39.6763 11.8212 44.1041 11.3113 49.0455C11.2378 49.7581 11.2685 50.4614 11.3919 51.1389C8.99395 50.9298 6.74756 50.1918 4.77006 49.0421Z" fill="#2186D3"/>
<path d="M52.6095 51.1388C55.0069 50.9295 57.2528 50.1915 59.2299 49.0421C59.7726 48.7266 60.1913 48.2297 60.3761 47.6299C60.6517 46.7353 60.8 45.785 60.8 44.8C60.8 39.4981 56.5019 35.2 51.2 35.2C49.5299 35.2 47.9595 35.6264 46.5916 36.3764C49.9426 39.6759 52.1801 44.1038 52.6901 49.0455C52.7636 49.7581 52.7329 50.4613 52.6095 51.1388Z" fill="#2186D3"/>
<path d="M57.6 25.6C57.6 29.1346 54.7346 32 51.2 32C47.6654 32 44.8 29.1346 44.8 25.6C44.8 22.0654 47.6654 19.2 51.2 19.2C54.7346 19.2 57.6 22.0654 57.6 25.6Z" fill="#2186D3"/>
<path d="M16.9723 51.8109C16.3351 51.2341 15.9975 50.3931 16.0857 49.5382C16.917 41.4825 23.7251 35.2 32.0005 35.2C40.2759 35.2 47.0839 41.4825 47.9152 49.5382C48.0034 50.3931 47.6658 51.2341 47.0287 51.8109C43.0545 55.4086 37.7834 57.6 32.0005 57.6C26.2175 57.6 20.9464 55.4086 16.9723 51.8109Z" fill="#2186D3"/>
</svg>
