<svg width="64" height="64" viewBox="0 0 64 64" fill="none" xmlns="http://www.w3.org/2000/svg">
<path d="M57.9239 34.0048C57.9743 33.3431 58 32.6746 58 32C58 27.9356 57.0674 24.0889 55.4045 20.6625C52.1056 23.7941 48.1791 26.2708 43.833 27.8843C43.9436 29.2416 44 30.6142 44 32C44 34.9365 43.7469 37.8139 43.2612 40.6116C48.5767 39.274 53.5247 37.0114 57.9239 34.0048Z" fill="#2186D3"/>
<path d="M39.0248 41.467C39.664 38.4118 40 35.2451 40 32C40 31.0177 39.9692 30.0425 39.9085 29.0754C37.3708 29.68 34.7228 30 32 30C29.2772 30 26.6292 29.68 24.0915 29.0754C24.0308 30.0425 24 31.0177 24 32C24 35.2451 24.336 38.4118 24.9752 41.467C27.2655 41.818 29.6115 42 32 42C34.3885 42 36.7345 41.818 39.0248 41.467Z" fill="#2186D3"/>
<path d="M26.0593 45.6508C28.0074 45.8814 29.9899 46 32 46C34.0101 46 35.9926 45.8814 37.9407 45.6508C36.5706 50.0658 34.5534 54.1962 32 57.9308C29.4466 54.1962 27.4294 50.0658 26.0593 45.6508Z" fill="#2186D3"/>
<path d="M20.7388 40.6116C20.2531 37.8139 20 34.9365 20 32C20 30.6142 20.0564 29.2416 20.167 27.8843C15.8209 26.2708 11.8944 23.7941 8.59555 20.6625C6.93262 24.0889 6 27.9356 6 32C6 32.6746 6.02569 33.3431 6.07615 34.0048C10.4753 37.0114 15.4233 39.274 20.7388 40.6116Z" fill="#2186D3"/>
<path d="M56.9495 39.3401C54.241 48.5613 46.5593 55.6549 37.0069 57.5184C39.3173 53.6329 41.1161 49.4078 42.3105 44.9358C47.5367 43.8402 52.4629 41.9285 56.9495 39.3401Z" fill="#2186D3"/>
<path d="M7.05053 39.3401C11.5371 41.9285 16.4633 43.8402 21.6895 44.9358C22.8839 49.4078 24.6827 53.6329 26.9931 57.5184C17.4407 55.6549 9.75903 48.5613 7.05053 39.3401Z" fill="#2186D3"/>
<path d="M37.0069 6.48168C43.7311 7.7934 49.5283 11.6967 53.3164 17.1095C50.4936 19.9598 47.1032 22.2469 43.3288 23.7873C42.2988 17.5544 40.1161 11.7104 37.0069 6.48168Z" fill="#2186D3"/>
<path d="M32 6.06921C35.8098 11.6415 38.4259 18.0945 39.4799 25.06C37.0888 25.6737 34.5825 26 32 26C29.4175 26 26.9112 25.6737 24.5201 25.06C25.5741 18.0945 28.1902 11.6415 32 6.06921Z" fill="#2186D3"/>
<path d="M26.9931 6.48168C23.8839 11.7104 21.7012 17.5544 20.6712 23.7873C16.8968 22.2469 13.5064 19.9598 10.6836 17.1095C14.4717 11.6967 20.2689 7.7934 26.9931 6.48168Z" fill="#2186D3"/>
</svg>
