<svg width="137" height="24" viewBox="0 0 137 24" fill="none" xmlns="http://www.w3.org/2000/svg">
<path d="M12.5 2L15.59 8.26L22.5 9.27L17.5 14.14L18.68 21.02L12.5 17.77L6.32 21.02L7.5 14.14L2.5 9.27L9.41 8.26L12.5 2Z" fill="#262626"/>
<path d="M40.5 2L43.59 8.26L50.5 9.27L45.5 14.14L46.68 21.02L40.5 17.77L34.32 21.02L35.5 14.14L30.5 9.27L37.41 8.26L40.5 2Z" fill="#262626"/>
<path d="M68.5 2L71.59 8.26L78.5 9.27L73.5 14.14L74.68 21.02L68.5 17.77L62.32 21.02L63.5 14.14L58.5 9.27L65.41 8.26L68.5 2Z" fill="#262626"/>
<path d="M96.5 2L99.59 8.26L106.5 9.27L101.5 14.14L102.68 21.02L96.5 17.77L90.32 21.02L91.5 14.14L86.5 9.27L93.41 8.26L96.5 2Z" fill="#262626"/>
<path d="M124.5 2L127.59 8.26L134.5 9.27L129.5 14.14L130.68 21.02L124.5 17.77L118.32 21.02L119.5 14.14L114.5 9.27L121.41 8.26L124.5 2Z" fill="#262626"/>
</svg>
