<svg width="24" height="24" viewBox="0 0 24 24" fill="none" xmlns="http://www.w3.org/2000/svg">
<path d="M6 20H11V22H6C4.89 22 4 21.11 4 20V4C4 3.46957 4.21071 2.96086 4.58579 2.58579C4.96086 2.21071 5.46957 2 6 2H18C18.5304 2 19.0391 2.21071 19.4142 2.58579C19.7893 2.96086 20 3.46957 20 4V10.3C19.78 10.42 19.57 10.56 19.39 10.74L18 12.13V4H13V12L10.5 9.75L8 12V4H6V20ZM22.85 13.47L21.53 12.15C21.33 11.95 21 11.95 20.81 12.15L19.83 13.13L21.87 15.17L22.85 14.19C23.05 14 23.05 13.67 22.85 13.47ZM13 19.96V22H15.04L21.17 15.88L19.13 13.83L13 19.96Z" fill="#111111"/>
</svg>
